# Blender v2.78 (sub 0) OBJ File: 'HumanBody-FullBody-insane.blend'
# www.blender.org
mtllib Connective.Ligaments.Pubicum_inferius.mtl
o Connective:Ligaments:Pubicum_inferius_Ligaments.092
v 0.005915 -0.206467 0.302658
v 0.005920 -0.199381 0.301915
v 0.005915 -0.193965 0.296523
v 0.005915 -0.193412 0.289283
v 0.005910 -0.198494 0.284275
v 0.005915 -0.206168 0.285057
v 0.005920 -0.211426 0.291187
v 0.005920 -0.211386 0.298392
v -0.006573 -0.206836 0.302708
v -0.019599 -0.207210 0.301830
v -0.032824 -0.207344 0.300091
v -0.045232 -0.206667 0.297236
v -0.054714 -0.204828 0.292806
v -0.006767 -0.199247 0.301890
v -0.019952 -0.198614 0.300879
v -0.033292 -0.197577 0.299015
v -0.045740 -0.196636 0.296553
v -0.054450 -0.196656 0.294037
v -0.006797 -0.193402 0.296130
v -0.020027 -0.191727 0.294411
v -0.033551 -0.189390 0.291520
v -0.046622 -0.187890 0.288630
v -0.056653 -0.190756 0.286323
v -0.006618 -0.192784 0.288366
v -0.019703 -0.190766 0.285376
v -0.033227 -0.187845 0.280762
v -0.046428 -0.186022 0.277040
v -0.056209 -0.187233 0.276526
v -0.006304 -0.198295 0.283039
v -0.019125 -0.197443 0.279332
v -0.032535 -0.196013 0.273985
v -0.045909 -0.194941 0.270098
v -0.056827 -0.195948 0.272166
v -0.006054 -0.206567 0.283956
v -0.018667 -0.207195 0.280901
v -0.031837 -0.207559 0.276561
v -0.044723 -0.207369 0.272580
v -0.054505 -0.206273 0.272221
v -0.006039 -0.212168 0.290524
v -0.018662 -0.213399 0.288461
v -0.031742 -0.214450 0.285391
v -0.044399 -0.213977 0.282421
v -0.054610 -0.210583 0.281405
v -0.006274 -0.212113 0.298193
v -0.019075 -0.213204 0.296932
v -0.032156 -0.214176 0.294804
v -0.044394 -0.213837 0.292133
v -0.052891 -0.211824 0.289826
v -0.058880 -0.200777 0.283249
v 0.018168 -0.212103 0.298273
v 0.031045 -0.213170 0.297042
v 0.044175 -0.214067 0.294844
v 0.056518 -0.213434 0.291894
v 0.065971 -0.209970 0.288536
v 0.017934 -0.212163 0.290623
v 0.030636 -0.213384 0.288635
v 0.043707 -0.214495 0.285561
v 0.056065 -0.214356 0.282456
v 0.064825 -0.212482 0.281051
v 0.017944 -0.206552 0.284056
v 0.030641 -0.207155 0.281131
v 0.043866 -0.207479 0.276905
v 0.056832 -0.207125 0.273183
v 0.067431 -0.205311 0.273990
v 0.018178 -0.198280 0.283114
v 0.031050 -0.197423 0.279511
v 0.044454 -0.195968 0.274199
v 0.057610 -0.194742 0.269889
v 0.067491 -0.194931 0.269789
v 0.018497 -0.192769 0.288431
v 0.031643 -0.190761 0.285571
v 0.045212 -0.187920 0.281101
v 0.058502 -0.186500 0.277528
v 0.068921 -0.189674 0.277697
v 0.018692 -0.193372 0.296175
v 0.031977 -0.191677 0.294535
v 0.045496 -0.189271 0.291725
v 0.058392 -0.187427 0.288919
v 0.067421 -0.188663 0.286996
v 0.018662 -0.199232 0.301930
v 0.031917 -0.198594 0.300934
v 0.045296 -0.197572 0.298995
v 0.057854 -0.196740 0.296165
v 0.067436 -0.197318 0.292049
v 0.018452 -0.206831 0.302767
v 0.031538 -0.207200 0.301910
v 0.044738 -0.207354 0.300206
v 0.056887 -0.206821 0.297595
v 0.065104 -0.205655 0.294595
v 0.070581 -0.200792 0.283079
vt 14843115655364691092719009792.0000 0.0000
vt 14843115655364691092719009792.0000 0.0000
vt 14843115655364691092719009792.0000 0.0000
vt 14843115655364691092719009792.0000 0.0000
vt 14843115655364691092719009792.0000 0.0000
vt 14843115655364691092719009792.0000 0.0000
vt 14843115655364691092719009792.0000 0.0000
vt 14843115655364691092719009792.0000 0.0000
vt 14843115655364691092719009792.0000 0.0000
vt 14843115655364691092719009792.0000 0.0000
vt 14843115655364691092719009792.0000 0.0000
vt 14843115655364691092719009792.0000 0.0000
vt 14843115655364691092719009792.0000 0.0000
vt 14843115655364691092719009792.0000 0.0000
vt 14843115655364691092719009792.0000 0.0000
vt 14843115655364691092719009792.0000 0.0000
vt 14843115655364691092719009792.0000 0.0000
vt 14843115655364691092719009792.0000 0.0000
vt 14843115655364691092719009792.0000 0.0000
vt 14843115655364691092719009792.0000 0.0000
vt 14843115655364691092719009792.0000 0.0000
vt 14843115655364691092719009792.0000 0.0000
vt 14843115655364691092719009792.0000 0.0000
vt 14843115655364691092719009792.0000 0.0000
vt 14843115655364691092719009792.0000 0.0000
vt 14843115655364691092719009792.0000 0.0000
vt 14843115655364691092719009792.0000 0.0000
vt 14843115655364691092719009792.0000 0.0000
vt 14843115655364691092719009792.0000 0.0000
vt 14843115655364691092719009792.0000 0.0000
vt 14843115655364691092719009792.0000 0.0000
vt 14843115655364691092719009792.0000 0.0000
vt 14843115655364691092719009792.0000 0.0000
vt 14843115655364691092719009792.0000 0.0000
vt 14843115655364691092719009792.0000 0.0000
vt 14843115655364691092719009792.0000 0.0000
vt 14843115655364691092719009792.0000 0.0000
vt 14843115655364691092719009792.0000 0.0000
vt 14843115655364691092719009792.0000 0.0000
vt 14843115655364691092719009792.0000 0.0000
vt 14843115655364691092719009792.0000 0.0000
vt 14843115655364691092719009792.0000 0.0000
vt 14843115655364691092719009792.0000 0.0000
vt 14843115655364691092719009792.0000 0.0000
vt 14843115655364691092719009792.0000 0.0000
vt 14843115655364691092719009792.0000 0.0000
vt 14843115655364691092719009792.0000 0.0000
vt 14843115655364691092719009792.0000 0.0000
vt 14843115655364691092719009792.0000 0.0000
vt 14843115655364691092719009792.0000 0.0000
vt 14843115655364691092719009792.0000 0.0000
vt 14843115655364691092719009792.0000 0.0000
vt 14843115655364691092719009792.0000 0.0000
vt 14843115655364691092719009792.0000 0.0000
vt 14843115655364691092719009792.0000 0.0000
vt 14843115655364691092719009792.0000 0.0000
vt 14843115655364691092719009792.0000 0.0000
vt 14843115655364691092719009792.0000 0.0000
vt 14843115655364691092719009792.0000 0.0000
vt 14843115655364691092719009792.0000 0.0000
vt 14843115655364691092719009792.0000 0.0000
vt 14843115655364691092719009792.0000 0.0000
vt 14843115655364691092719009792.0000 0.0000
vt 14843115655364691092719009792.0000 0.0000
vt 14843115655364691092719009792.0000 0.0000
vt 14843115655364691092719009792.0000 0.0000
vt 14843115655364691092719009792.0000 0.0000
vt 14843115655364691092719009792.0000 0.0000
vt 14843115655364691092719009792.0000 0.0000
vt 14843115655364691092719009792.0000 0.0000
vt 14843115655364691092719009792.0000 0.0000
vt 14843115655364691092719009792.0000 0.0000
vt 14843115655364691092719009792.0000 0.0000
vt 14843115655364691092719009792.0000 0.0000
vt 14843115655364691092719009792.0000 0.0000
vt 14843115655364691092719009792.0000 0.0000
vt 14843115655364691092719009792.0000 0.0000
vt 14843115655364691092719009792.0000 0.0000
vt 14843115655364691092719009792.0000 0.0000
vt 14843115655364691092719009792.0000 0.0000
vt 14843115655364691092719009792.0000 0.0000
vt 14843115655364691092719009792.0000 0.0000
vt 14843115655364691092719009792.0000 0.0000
vt 14843115655364691092719009792.0000 0.0000
vt 14843115655364691092719009792.0000 0.0000
vt 14843115655364691092719009792.0000 0.0000
vt 14843115655364691092719009792.0000 0.0000
vt 14843115655364691092719009792.0000 0.0000
vt 14843115655364691092719009792.0000 0.0000
vt 14843115655364691092719009792.0000 0.0000
vn -0.0019 0.4280 0.9037
vn -0.0212 -0.2947 0.9554
vn -0.0022 -0.2940 0.9558
vn -0.0230 0.4223 0.9062
vn -0.0866 -0.2886 0.9535
vn -0.0703 0.4136 0.9077
vn -0.1718 -0.2828 0.9436
vn -0.1259 0.4021 0.9069
vn -0.3126 -0.2698 0.9108
vn -0.2250 0.3604 0.9052
vn -0.7312 -0.2480 0.6354
vn -0.0016 0.9033 0.4288
vn 0.0374 0.8983 0.4377
vn 0.0533 0.8881 0.4564
vn 0.0287 0.8841 0.4664
vn -0.1478 0.8843 0.4429
vn -0.5987 0.2461 0.7622
vn 0.0002 0.9413 -0.3376
vn 0.1415 0.9345 -0.3265
vn 0.2506 0.9177 -0.3081
vn 0.2505 0.9129 -0.3222
vn 0.0313 0.9348 -0.3538
vn -0.7392 0.5907 0.3233
vn 0.0032 0.3336 -0.9427
vn 0.1947 0.3177 -0.9279
vn 0.3350 0.2722 -0.9020
vn 0.3399 0.2383 -0.9098
vn 0.0819 0.2421 -0.9668
vn -0.6065 0.7434 -0.2819
vn 0.1635 -0.4677 -0.8686
vn 0.2595 -0.4834 -0.8361
vn 0.2581 -0.5186 -0.8151
vn 0.0803 -0.5626 -0.8227
vn -0.5021 -0.5084 -0.6995
vn -0.7112 0.1326 -0.6904
vn 0.0041 -0.4662 -0.8846
vn 0.1086 -0.9385 -0.3278
vn 0.1459 -0.9389 -0.3118
vn 0.0960 -0.9465 -0.3080
vn -0.0922 -0.9466 -0.3088
vn -0.6509 -0.7379 -0.1781
vn 0.0018 -0.9411 -0.3381
vn 0.0375 -0.9000 0.4342
vn 0.0114 -0.8949 0.4460
vn -0.0666 -0.8911 0.4487
vn -0.2117 -0.8764 0.4324
vn -0.6136 -0.7139 0.3373
vn -0.0008 -0.9038 0.4279
vn -0.9922 -0.1089 0.0611
vn -0.0381 -0.8993 0.4355
vn -0.1048 -0.9390 -0.3276
vn -0.0092 -0.8947 0.4466
vn -0.1437 -0.9395 -0.3108
vn 0.0739 -0.8934 0.4432
vn -0.1002 -0.9489 -0.2993
vn 0.2609 -0.8756 0.4064
vn 0.0693 -0.9599 -0.2716
vn 0.7015 -0.6514 0.2892
vn -0.1549 -0.4686 -0.8697
vn -0.2522 -0.4830 -0.8385
vn -0.2527 -0.5094 -0.8225
vn -0.0525 -0.5287 -0.8472
vn 0.5097 -0.8360 -0.2033
vn -0.1869 0.3159 -0.9302
vn -0.3278 0.2713 -0.9049
vn -0.3402 0.2407 -0.9090
vn -0.1419 0.2342 -0.9618
vn 0.6248 -0.4597 -0.6311
vn -0.1393 0.9341 -0.3287
vn -0.2468 0.9176 -0.3116
vn -0.2429 0.9112 -0.3326
vn -0.0042 0.9292 -0.3696
vn 0.5276 0.1726 -0.8317
vn -0.0402 0.8980 0.4382
vn -0.0555 0.8860 0.4602
vn -0.0327 0.8781 0.4773
vn 0.1162 0.8718 0.4759
vn 0.6139 0.6860 0.3904
vn 0.7422 0.6263 -0.2385
vn 0.0204 0.4228 0.9059
vn 0.0704 0.4127 0.9081
vn 0.1337 0.4035 0.9051
vn 0.2618 0.3816 0.8865
vn 0.7233 0.2127 0.6570
vn 0.0183 -0.2929 0.9560
vn 0.0847 -0.2866 0.9543
vn 0.1649 -0.2828 0.9449
vn 0.2881 -0.2894 0.9128
vn 0.6301 -0.2700 0.7280
vn 0.9908 -0.1218 0.0588
g Connective:Ligaments:Pubicum_inferius_Ligaments.092_Ligaments
usemtl Ligaments
s 1
f 2/1/1 9/2/2 1/3/3
f 14/4/4 10/5/5 9/2/2
f 15/6/6 11/7/7 10/5/5
f 16/8/8 12/9/9 11/7/7
f 17/10/10 13/11/11 12/9/9
f 3/12/12 14/4/4 2/1/1
f 19/13/13 15/6/6 14/4/4
f 20/14/14 16/8/8 15/6/6
f 21/15/15 17/10/10 16/8/8
f 22/16/16 18/17/17 17/10/10
f 4/18/18 19/13/13 3/12/12
f 24/19/19 20/14/14 19/13/13
f 25/20/20 21/15/15 20/14/14
f 26/21/21 22/16/16 21/15/15
f 27/22/22 23/23/23 22/16/16
f 5/24/24 24/19/19 4/18/18
f 29/25/25 25/20/20 24/19/19
f 30/26/26 26/21/21 25/20/20
f 31/27/27 27/22/22 26/21/21
f 32/28/28 28/29/29 27/22/22
f 5/24/24 34/30/30 29/25/25
f 29/25/25 35/31/31 30/26/26
f 30/26/26 36/32/32 31/27/27
f 31/27/27 37/33/33 32/28/28
f 32/28/28 38/34/34 33/35/35
f 6/36/36 39/37/37 34/30/30
f 34/30/30 40/38/38 35/31/31
f 35/31/31 41/39/39 36/32/32
f 36/32/32 42/40/40 37/33/33
f 37/33/33 43/41/41 38/34/34
f 7/42/42 44/43/43 39/37/37
f 39/37/37 45/44/44 40/38/38
f 40/38/38 46/45/45 41/39/39
f 41/39/39 47/46/46 42/40/40
f 42/40/40 48/47/47 43/41/41
f 8/48/48 9/2/2 44/43/43
f 44/43/43 10/5/5 45/44/44
f 45/44/44 11/7/7 46/45/45
f 46/45/45 12/9/9 47/46/46
f 12/9/9 48/47/47 47/46/46
f 38/34/34 49/49/49 33/35/35
f 43/41/41 13/11/11 49/49/49
f 33/35/35 23/23/23 28/29/29
f 49/49/49 18/17/17 23/23/23
f 7/42/42 50/50/50 8/48/48
f 55/51/51 51/52/52 50/50/50
f 56/53/53 52/54/54 51/52/52
f 57/55/55 53/56/56 52/54/54
f 58/57/57 54/58/58 53/56/56
f 6/36/36 55/51/51 7/42/42
f 60/59/59 56/53/53 55/51/51
f 61/60/60 57/55/55 56/53/53
f 62/61/61 58/57/57 57/55/55
f 63/62/62 59/63/63 58/57/57
f 5/24/24 60/59/59 6/36/36
f 65/64/64 61/60/60 60/59/59
f 66/65/65 62/61/61 61/60/60
f 67/66/66 63/62/62 62/61/61
f 68/67/67 64/68/68 63/62/62
f 5/24/24 70/69/69 65/64/64
f 65/64/64 71/70/70 66/65/65
f 66/65/65 72/71/71 67/66/66
f 67/66/66 73/72/72 68/67/67
f 73/72/72 69/73/73 68/67/67
f 4/18/18 75/74/74 70/69/69
f 70/69/69 76/75/75 71/70/70
f 71/70/70 77/76/76 72/71/71
f 72/71/71 78/77/77 73/72/72
f 73/72/72 79/78/78 74/79/79
f 3/12/12 80/80/80 75/74/74
f 75/74/74 81/81/81 76/75/75
f 76/75/75 82/82/82 77/76/76
f 77/76/76 83/83/83 78/77/77
f 78/77/77 84/84/84 79/78/78
f 2/1/1 85/85/85 80/80/80
f 80/80/80 86/86/86 81/81/81
f 81/81/81 87/87/87 82/82/82
f 82/82/82 88/88/88 83/83/83
f 83/83/83 89/89/89 84/84/84
f 8/48/48 85/85/85 1/3/3
f 50/50/50 86/86/86 85/85/85
f 51/52/52 87/87/87 86/86/86
f 52/54/54 88/88/88 87/87/87
f 53/56/56 89/89/89 88/88/88
f 79/78/78 90/90/90 74/79/79
f 89/89/89 90/90/90 84/84/84
f 90/90/90 69/73/73 74/79/79
f 90/90/90 59/63/63 64/68/68
f 2/1/1 14/4/4 9/2/2
f 14/4/4 15/6/6 10/5/5
f 15/6/6 16/8/8 11/7/7
f 16/8/8 17/10/10 12/9/9
f 17/10/10 18/17/17 13/11/11
f 3/12/12 19/13/13 14/4/4
f 19/13/13 20/14/14 15/6/6
f 20/14/14 21/15/15 16/8/8
f 21/15/15 22/16/16 17/10/10
f 22/16/16 23/23/23 18/17/17
f 4/18/18 24/19/19 19/13/13
f 24/19/19 25/20/20 20/14/14
f 25/20/20 26/21/21 21/15/15
f 26/21/21 27/22/22 22/16/16
f 27/22/22 28/29/29 23/23/23
f 5/24/24 29/25/25 24/19/19
f 29/25/25 30/26/26 25/20/20
f 30/26/26 31/27/27 26/21/21
f 31/27/27 32/28/28 27/22/22
f 32/28/28 33/35/35 28/29/29
f 5/24/24 6/36/36 34/30/30
f 29/25/25 34/30/30 35/31/31
f 30/26/26 35/31/31 36/32/32
f 31/27/27 36/32/32 37/33/33
f 32/28/28 37/33/33 38/34/34
f 6/36/36 7/42/42 39/37/37
f 34/30/30 39/37/37 40/38/38
f 35/31/31 40/38/38 41/39/39
f 36/32/32 41/39/39 42/40/40
f 37/33/33 42/40/40 43/41/41
f 7/42/42 8/48/48 44/43/43
f 39/37/37 44/43/43 45/44/44
f 40/38/38 45/44/44 46/45/45
f 41/39/39 46/45/45 47/46/46
f 42/40/40 47/46/46 48/47/47
f 8/48/48 1/3/3 9/2/2
f 44/43/43 9/2/2 10/5/5
f 45/44/44 10/5/5 11/7/7
f 46/45/45 11/7/7 12/9/9
f 12/9/9 13/11/11 48/47/47
f 38/34/34 43/41/41 49/49/49
f 43/41/41 48/47/47 13/11/11
f 33/35/35 49/49/49 23/23/23
f 49/49/49 13/11/11 18/17/17
f 7/42/42 55/51/51 50/50/50
f 55/51/51 56/53/53 51/52/52
f 56/53/53 57/55/55 52/54/54
f 57/55/55 58/57/57 53/56/56
f 58/57/57 59/63/63 54/58/58
f 6/36/36 60/59/59 55/51/51
f 60/59/59 61/60/60 56/53/53
f 61/60/60 62/61/61 57/55/55
f 62/61/61 63/62/62 58/57/57
f 63/62/62 64/68/68 59/63/63
f 5/24/24 65/64/64 60/59/59
f 65/64/64 66/65/65 61/60/60
f 66/65/65 67/66/66 62/61/61
f 67/66/66 68/67/67 63/62/62
f 68/67/67 69/73/73 64/68/68
f 5/24/24 4/18/18 70/69/69
f 65/64/64 70/69/69 71/70/70
f 66/65/65 71/70/70 72/71/71
f 67/66/66 72/71/71 73/72/72
f 73/72/72 74/79/79 69/73/73
f 4/18/18 3/12/12 75/74/74
f 70/69/69 75/74/74 76/75/75
f 71/70/70 76/75/75 77/76/76
f 72/71/71 77/76/76 78/77/77
f 73/72/72 78/77/77 79/78/78
f 3/12/12 2/1/1 80/80/80
f 75/74/74 80/80/80 81/81/81
f 76/75/75 81/81/81 82/82/82
f 77/76/76 82/82/82 83/83/83
f 78/77/77 83/83/83 84/84/84
f 2/1/1 1/3/3 85/85/85
f 80/80/80 85/85/85 86/86/86
f 81/81/81 86/86/86 87/87/87
f 82/82/82 87/87/87 88/88/88
f 83/83/83 88/88/88 89/89/89
f 8/48/48 50/50/50 85/85/85
f 50/50/50 51/52/52 86/86/86
f 51/52/52 52/54/54 87/87/87
f 52/54/54 53/56/56 88/88/88
f 53/56/56 54/58/58 89/89/89
f 79/78/78 84/84/84 90/90/90
f 89/89/89 54/58/58 90/90/90
f 90/90/90 64/68/68 69/73/73
f 90/90/90 54/58/58 59/63/63
