# Blender v2.78 (sub 0) OBJ File: 'HumanBody-FullBody-insane.blend'
# www.blender.org
mtllib Connective.Ligaments.Pubicum_superius.mtl
o Connective:Ligaments:Pubicum_superius_Ligaments.120
v 0.005905 -0.065775 0.356640
v 0.005905 -0.052843 0.356520
v 0.005905 -0.044691 0.350680
v 0.005905 -0.045957 0.342308
v 0.005905 -0.056451 0.336179
v 0.005910 -0.070175 0.336109
v 0.005905 -0.078591 0.342268
v 0.005910 -0.076438 0.350844
v -0.012204 -0.066029 0.356909
v -0.031433 -0.066995 0.358463
v -0.052547 -0.068839 0.362764
v -0.075016 -0.067618 0.363043
v -0.093368 -0.061978 0.357292
v -0.012069 -0.052445 0.356754
v -0.031050 -0.051060 0.358065
v -0.051595 -0.048344 0.361493
v -0.072290 -0.047342 0.360606
v -0.087593 -0.046625 0.357522
v -0.011670 -0.043685 0.350495
v -0.030128 -0.040356 0.350276
v -0.050115 -0.034849 0.350630
v -0.071014 -0.034775 0.348766
v -0.089437 -0.038014 0.346519
v -0.011222 -0.044636 0.341426
v -0.029061 -0.040436 0.338780
v -0.048286 -0.033599 0.334774
v -0.068901 -0.032866 0.332706
v -0.086327 -0.033429 0.333304
v -0.011008 -0.055614 0.334674
v -0.028593 -0.052993 0.329781
v -0.047619 -0.048070 0.320741
v -0.070072 -0.046156 0.318524
v -0.091156 -0.047073 0.324837
v -0.011147 -0.070399 0.334679
v -0.028987 -0.071356 0.330115
v -0.048525 -0.072881 0.322326
v -0.070860 -0.070823 0.317089
v -0.090065 -0.066492 0.321643
v -0.011526 -0.079568 0.341471
v -0.029919 -0.083026 0.339109
v -0.050529 -0.088508 0.335671
v -0.075335 -0.090605 0.333025
v -0.096767 -0.077296 0.336074
v -0.011974 -0.077246 0.350765
v -0.030940 -0.080151 0.350979
v -0.051834 -0.085792 0.352698
v -0.075110 -0.087476 0.354213
v -0.093408 -0.080425 0.352803
v -0.100938 -0.053626 0.341576
v 0.023794 -0.077256 0.350765
v 0.042785 -0.080141 0.350969
v 0.063844 -0.085652 0.352628
v 0.087967 -0.086629 0.353819
v 0.108711 -0.075651 0.350959
v 0.023326 -0.079593 0.341466
v 0.041674 -0.083076 0.339104
v 0.062025 -0.088657 0.335651
v 0.085470 -0.091487 0.332925
v 0.105148 -0.082538 0.334948
v 0.022967 -0.070424 0.334679
v 0.040837 -0.071376 0.330115
v 0.060570 -0.072796 0.322356
v 0.084070 -0.070354 0.317492
v 0.105572 -0.064090 0.324942
v 0.022818 -0.055639 0.334674
v 0.040368 -0.053008 0.329776
v 0.059204 -0.048005 0.320696
v 0.080671 -0.045942 0.318175
v 0.099209 -0.045792 0.321862
v 0.023037 -0.044651 0.341426
v 0.040901 -0.040465 0.338785
v 0.060286 -0.033693 0.334784
v 0.081613 -0.033330 0.332855
v 0.101855 -0.036180 0.334450
v 0.023480 -0.043690 0.350495
v 0.041918 -0.040356 0.350281
v 0.061776 -0.034795 0.350665
v 0.082097 -0.034366 0.348956
v 0.097803 -0.035542 0.347431
v 0.023884 -0.052455 0.356749
v 0.042890 -0.051079 0.358050
v 0.063569 -0.048413 0.361423
v 0.084822 -0.047581 0.360133
v 0.102652 -0.047656 0.355005
v 0.024014 -0.066039 0.356914
v 0.043218 -0.067015 0.358473
v 0.064202 -0.068884 0.362824
v 0.086068 -0.067942 0.363631
v 0.102174 -0.063861 0.360317
v 0.112773 -0.053641 0.341561
vt 139542303395802081984507268825088.0000 0.0000
vt 139542303395802081984507268825088.0000 0.0000
vt 139542303395802081984507268825088.0000 0.0000
vt 139542303395802081984507268825088.0000 0.0000
vt 139542303395802081984507268825088.0000 0.0000
vt 139542303395802081984507268825088.0000 0.0000
vt 139542303395802081984507268825088.0000 0.0000
vt 139542303395802081984507268825088.0000 0.0000
vt 139542303395802081984507268825088.0000 0.0000
vt 139542303395802081984507268825088.0000 0.0000
vt 139542303395802081984507268825088.0000 0.0000
vt 139542303395802081984507268825088.0000 0.0000
vt 139542303395802081984507268825088.0000 0.0000
vt 139542303395802081984507268825088.0000 0.0000
vt 139542303395802081984507268825088.0000 0.0000
vt 139542303395802081984507268825088.0000 0.0000
vt 139542303395802081984507268825088.0000 0.0000
vt 139542303395802081984507268825088.0000 0.0000
vt 139542303395802081984507268825088.0000 0.0000
vt 139542303395802081984507268825088.0000 0.0000
vt 139542303395802081984507268825088.0000 0.0000
vt 139542303395802081984507268825088.0000 0.0000
vt 139542303395802081984507268825088.0000 0.0000
vt 139542303395802081984507268825088.0000 0.0000
vt 139542303395802081984507268825088.0000 0.0000
vt 139542303395802081984507268825088.0000 0.0000
vt 139542303395802081984507268825088.0000 0.0000
vt 139542303395802081984507268825088.0000 0.0000
vt 139542303395802081984507268825088.0000 0.0000
vt 139542303395802081984507268825088.0000 0.0000
vt 139542303395802081984507268825088.0000 0.0000
vt 139542303395802081984507268825088.0000 0.0000
vt 139542303395802081984507268825088.0000 0.0000
vt 139542303395802081984507268825088.0000 0.0000
vt 139542303395802081984507268825088.0000 0.0000
vt 139542303395802081984507268825088.0000 0.0000
vt 139542303395802081984507268825088.0000 0.0000
vt 139542303395802081984507268825088.0000 0.0000
vt 139542303395802081984507268825088.0000 0.0000
vt 139542303395802081984507268825088.0000 0.0000
vt 139542303395802081984507268825088.0000 0.0000
vt 139542303395802081984507268825088.0000 0.0000
vt 139542303395802081984507268825088.0000 0.0000
vt 139542303395802081984507268825088.0000 0.0000
vt 139542303395802081984507268825088.0000 0.0000
vt 139542303395802081984507268825088.0000 0.0000
vt 139542303395802081984507268825088.0000 0.0000
vt 139542303395802081984507268825088.0000 0.0000
vt 139542303395802081984507268825088.0000 0.0000
vt 139542303395802081984507268825088.0000 0.0000
vt 139542303395802081984507268825088.0000 0.0000
vt 139542303395802081984507268825088.0000 0.0000
vt 139542303395802081984507268825088.0000 0.0000
vt 139542303395802081984507268825088.0000 0.0000
vt 139542303395802081984507268825088.0000 0.0000
vt 139542303395802081984507268825088.0000 0.0000
vt 139542303395802081984507268825088.0000 0.0000
vt 139542303395802081984507268825088.0000 0.0000
vt 139542303395802081984507268825088.0000 0.0000
vt 139542303395802081984507268825088.0000 0.0000
vt 139542303395802081984507268825088.0000 0.0000
vt 139542303395802081984507268825088.0000 0.0000
vt 139542303395802081984507268825088.0000 0.0000
vt 139542303395802081984507268825088.0000 0.0000
vt 139542303395802081984507268825088.0000 0.0000
vt 139542303395802081984507268825088.0000 0.0000
vt 139542303395802081984507268825088.0000 0.0000
vt 139542303395802081984507268825088.0000 0.0000
vt 139542303395802081984507268825088.0000 0.0000
vt 139542303395802081984507268825088.0000 0.0000
vt 139542303395802081984507268825088.0000 0.0000
vt 139542303395802081984507268825088.0000 0.0000
vt 139542303395802081984507268825088.0000 0.0000
vt 139542303395802081984507268825088.0000 0.0000
vt 139542303395802081984507268825088.0000 0.0000
vt 139542303395802081984507268825088.0000 0.0000
vt 139542303395802081984507268825088.0000 0.0000
vt 139542303395802081984507268825088.0000 0.0000
vt 139542303395802081984507268825088.0000 0.0000
vt 139542303395802081984507268825088.0000 0.0000
vt 139542303395802081984507268825088.0000 0.0000
vt 139542303395802081984507268825088.0000 0.0000
vt 139542303395802081984507268825088.0000 0.0000
vt 139542303395802081984507268825088.0000 0.0000
vt 139542303395802081984507268825088.0000 0.0000
vt 139542303395802081984507268825088.0000 0.0000
vt 139542303395802081984507268825088.0000 0.0000
vt 139542303395802081984507268825088.0000 0.0000
vt 139542303395802081984507268825088.0000 0.0000
vt 139542303395802081984507268825088.0000 0.0000
vn -0.0001 -0.2398 0.9708
vn 0.0545 0.3059 0.9505
vn 0.0527 -0.2386 0.9697
vn 0.1451 0.3070 0.9406
vn 0.1489 -0.2338 0.9608
vn 0.0753 0.3577 0.9308
vn 0.1099 -0.2180 0.9697
vn -0.0789 0.4180 0.9050
vn -0.1368 -0.1392 0.9807
vn -0.4513 0.4406 0.7760
vn -0.6854 -0.0146 0.7280
vn 0.0003 0.9137 0.4063
vn 0.0002 0.3071 0.9517
vn 0.1163 0.8954 0.4298
vn 0.2079 0.8658 0.4550
vn -0.0774 0.8877 0.4539
vn 0.1899 0.8369 -0.5133
vn 0.3272 0.8590 -0.3938
vn 0.1115 0.8755 0.4701
vn 0.0164 0.9420 -0.3352
vn -0.4820 0.8353 -0.2644
vn -0.5893 0.7424 0.3187
vn 0.0004 0.8303 -0.5572
vn 0.1941 0.2586 -0.9463
vn 0.3735 0.2581 -0.8910
vn 0.2908 0.3411 -0.8939
vn 0.2189 0.9189 -0.3280
vn -0.0456 0.4090 -0.9113
vn 0.0002 0.2584 -0.9660
vn 0.1700 -0.3127 -0.9345
vn 0.3148 -0.3256 -0.8915
vn 0.2696 -0.3791 -0.8852
vn -0.0505 -0.3128 -0.9485
vn -0.5731 -0.1868 -0.7978
vn -0.6449 0.3656 -0.6710
vn -0.0005 -0.9441 -0.3297
vn -0.0002 -0.3106 -0.9505
vn 0.1487 -0.9361 -0.3189
vn 0.2760 -0.9138 -0.2978
vn 0.1957 -0.9257 -0.3237
vn -0.1792 -0.9115 -0.3702
vn 0.0829 -0.7837 0.6156
vn 0.1979 -0.7749 0.6003
vn 0.1630 -0.8161 0.5544
vn -0.6913 -0.5388 0.4813
vn -0.8360 -0.4879 -0.2510
vn -0.0002 -0.7857 0.6186
vn -0.1304 -0.8079 0.5747
vn -0.9783 0.2051 0.0280
vn -0.0829 -0.7836 0.6157
vn -0.1493 -0.9362 -0.3182
vn -0.1952 -0.7756 0.6002
vn -0.2764 -0.9143 -0.2960
vn -0.1448 -0.8076 0.5716
vn 0.1370 -0.9246 -0.3554
vn 0.1862 -0.7879 0.5870
vn 0.7082 -0.6391 -0.3000
vn 0.8060 -0.4366 0.3996
vn -0.1701 -0.3127 -0.9345
vn -0.3120 -0.3254 -0.8926
vn -0.2652 -0.3668 -0.8917
vn -0.2212 -0.9231 -0.3145
vn 0.1012 -0.2994 -0.9487
vn -0.1942 0.2581 -0.9464
vn -0.3753 0.2563 -0.8907
vn -0.3027 0.3310 -0.8937
vn 0.4785 0.3955 -0.7839
vn 0.7203 -0.1469 -0.6779
vn -0.1894 0.8368 -0.5137
vn -0.3273 0.8590 -0.3936
vn -0.2149 0.9226 -0.3203
vn 0.0158 0.4169 -0.9088
vn 0.0433 0.9420 -0.3326
vn -0.1159 0.8955 0.4295
vn -0.1185 0.8766 0.4664
vn 0.0578 0.8943 0.4438
vn 0.4049 0.8234 0.3976
vn 0.5701 0.7823 -0.2507
vn -0.0541 0.3059 0.9505
vn -0.1429 0.3070 0.9409
vn -0.2090 0.8651 0.4559
vn -0.0685 0.3525 0.9333
vn 0.1072 0.4176 0.9023
vn -0.0529 -0.2382 0.9698
vn -0.1497 -0.2329 0.9609
vn -0.1030 -0.2291 0.9679
vn 0.5227 -0.0348 0.8518
vn 0.5819 0.4239 0.6940
vn 0.0937 -0.1695 0.9810
vn 0.9823 0.1857 0.0231
g Connective:Ligaments:Pubicum_superius_Ligaments.120_Ligaments
usemtl Ligaments
s 1
f 1/1/1 14/2/2 9/3/3
f 9/3/3 15/4/4 10/5/5
f 10/5/5 16/6/6 11/7/7
f 11/7/7 17/8/8 12/9/9
f 12/9/9 18/10/10 13/11/11
f 3/12/12 14/2/2 2/13/13
f 19/14/14 15/4/4 14/2/2
f 20/15/15 16/6/6 15/4/4
f 16/6/6 22/16/16 17/8/8
f 22/16/16 18/10/10 17/8/8
f 3/12/12 24/17/17 19/14/14
f 19/14/14 25/18/18 20/15/15
f 25/18/18 21/19/19 20/15/15
f 21/19/19 27/20/20 22/16/16
f 22/16/16 28/21/21 23/22/22
f 4/23/23 29/24/24 24/17/17
f 24/17/17 30/25/25 25/18/18
f 25/18/18 31/26/26 26/27/27
f 31/26/26 27/20/20 26/27/27
f 32/28/28 28/21/21 27/20/20
f 5/29/29 34/30/30 29/24/24
f 29/24/24 35/31/31 30/25/25
f 30/25/25 36/32/32 31/26/26
f 31/26/26 37/33/33 32/28/28
f 32/28/28 38/34/34 33/35/35
f 7/36/36 34/30/30 6/37/37
f 39/38/38 35/31/31 34/30/30
f 40/39/39 36/32/32 35/31/31
f 41/40/40 37/33/33 36/32/32
f 42/41/41 38/34/34 37/33/33
f 7/36/36 44/42/42 39/38/38
f 39/38/38 45/43/43 40/39/39
f 40/39/39 46/44/44 41/40/40
f 46/44/44 42/41/41 41/40/40
f 42/41/41 48/45/45 43/46/46
f 8/47/47 9/3/3 44/42/42
f 44/42/42 10/5/5 45/43/43
f 45/43/43 11/7/7 46/44/44
f 11/7/7 47/48/48 46/44/44
f 12/9/9 48/45/45 47/48/48
f 38/34/34 49/49/49 33/35/35
f 43/46/46 13/11/11 49/49/49
f 33/35/35 23/22/22 28/21/21
f 49/49/49 18/10/10 23/22/22
f 7/36/36 50/50/50 8/47/47
f 55/51/51 51/52/52 50/50/50
f 56/53/53 52/54/54 51/52/52
f 52/54/54 58/55/55 53/56/56
f 53/56/56 59/57/57 54/58/58
f 7/36/36 60/59/59 55/51/51
f 55/51/51 61/60/60 56/53/53
f 56/53/53 62/61/61 57/62/62
f 62/61/61 58/55/55 57/62/62
f 63/63/63 59/57/57 58/55/55
f 5/29/29 60/59/59 6/37/37
f 65/64/64 61/60/60 60/59/59
f 66/65/65 62/61/61 61/60/60
f 67/66/66 63/63/63 62/61/61
f 63/63/63 69/67/67 64/68/68
f 4/23/23 65/64/64 5/29/29
f 70/69/69 66/65/65 65/64/64
f 71/70/70 67/66/66 66/65/65
f 72/71/71 68/72/72 67/66/66
f 73/73/73 69/67/67 68/72/72
f 3/12/12 70/69/69 4/23/23
f 75/74/74 71/70/70 70/69/69
f 71/70/70 77/75/75 72/71/71
f 72/71/71 78/76/76 73/73/73
f 73/73/73 79/77/77 74/78/78
f 3/12/12 80/79/79 75/74/74
f 75/74/74 81/80/80 76/81/81
f 76/81/81 82/82/82 77/75/75
f 82/82/82 78/76/76 77/75/75
f 83/83/83 79/77/77 78/76/76
f 1/1/1 80/79/79 2/13/13
f 85/84/84 81/80/80 80/79/79
f 86/85/85 82/82/82 81/80/80
f 87/86/86 83/83/83 82/82/82
f 83/83/83 89/87/87 84/88/88
f 8/47/47 85/84/84 1/1/1
f 50/50/50 86/85/85 85/84/84
f 51/52/52 87/86/86 86/85/85
f 52/54/54 88/89/89 87/86/86
f 53/56/56 89/87/87 88/89/89
f 79/77/77 90/90/90 74/78/78
f 89/87/87 90/90/90 84/88/88
f 90/90/90 69/67/67 74/78/78
f 54/58/58 64/68/68 90/90/90
f 1/1/1 2/13/13 14/2/2
f 9/3/3 14/2/2 15/4/4
f 10/5/5 15/4/4 16/6/6
f 11/7/7 16/6/6 17/8/8
f 12/9/9 17/8/8 18/10/10
f 3/12/12 19/14/14 14/2/2
f 19/14/14 20/15/15 15/4/4
f 20/15/15 21/19/19 16/6/6
f 16/6/6 21/19/19 22/16/16
f 22/16/16 23/22/22 18/10/10
f 3/12/12 4/23/23 24/17/17
f 19/14/14 24/17/17 25/18/18
f 25/18/18 26/27/27 21/19/19
f 21/19/19 26/27/27 27/20/20
f 22/16/16 27/20/20 28/21/21
f 4/23/23 5/29/29 29/24/24
f 24/17/17 29/24/24 30/25/25
f 25/18/18 30/25/25 31/26/26
f 31/26/26 32/28/28 27/20/20
f 32/28/28 33/35/35 28/21/21
f 5/29/29 6/37/37 34/30/30
f 29/24/24 34/30/30 35/31/31
f 30/25/25 35/31/31 36/32/32
f 31/26/26 36/32/32 37/33/33
f 32/28/28 37/33/33 38/34/34
f 7/36/36 39/38/38 34/30/30
f 39/38/38 40/39/39 35/31/31
f 40/39/39 41/40/40 36/32/32
f 41/40/40 42/41/41 37/33/33
f 42/41/41 43/46/46 38/34/34
f 7/36/36 8/47/47 44/42/42
f 39/38/38 44/42/42 45/43/43
f 40/39/39 45/43/43 46/44/44
f 46/44/44 47/48/48 42/41/41
f 42/41/41 47/48/48 48/45/45
f 8/47/47 1/1/1 9/3/3
f 44/42/42 9/3/3 10/5/5
f 45/43/43 10/5/5 11/7/7
f 11/7/7 12/9/9 47/48/48
f 12/9/9 13/11/11 48/45/45
f 38/34/34 43/46/46 49/49/49
f 43/46/46 48/45/45 13/11/11
f 33/35/35 49/49/49 23/22/22
f 49/49/49 13/11/11 18/10/10
f 7/36/36 55/51/51 50/50/50
f 55/51/51 56/53/53 51/52/52
f 56/53/53 57/62/62 52/54/54
f 52/54/54 57/62/62 58/55/55
f 53/56/56 58/55/55 59/57/57
f 7/36/36 6/37/37 60/59/59
f 55/51/51 60/59/59 61/60/60
f 56/53/53 61/60/60 62/61/61
f 62/61/61 63/63/63 58/55/55
f 63/63/63 64/68/68 59/57/57
f 5/29/29 65/64/64 60/59/59
f 65/64/64 66/65/65 61/60/60
f 66/65/65 67/66/66 62/61/61
f 67/66/66 68/72/72 63/63/63
f 63/63/63 68/72/72 69/67/67
f 4/23/23 70/69/69 65/64/64
f 70/69/69 71/70/70 66/65/65
f 71/70/70 72/71/71 67/66/66
f 72/71/71 73/73/73 68/72/72
f 73/73/73 74/78/78 69/67/67
f 3/12/12 75/74/74 70/69/69
f 75/74/74 76/81/81 71/70/70
f 71/70/70 76/81/81 77/75/75
f 72/71/71 77/75/75 78/76/76
f 73/73/73 78/76/76 79/77/77
f 3/12/12 2/13/13 80/79/79
f 75/74/74 80/79/79 81/80/80
f 76/81/81 81/80/80 82/82/82
f 82/82/82 83/83/83 78/76/76
f 83/83/83 84/88/88 79/77/77
f 1/1/1 85/84/84 80/79/79
f 85/84/84 86/85/85 81/80/80
f 86/85/85 87/86/86 82/82/82
f 87/86/86 88/89/89 83/83/83
f 83/83/83 88/89/89 89/87/87
f 8/47/47 50/50/50 85/84/84
f 50/50/50 51/52/52 86/85/85
f 51/52/52 52/54/54 87/86/86
f 52/54/54 53/56/56 88/89/89
f 53/56/56 54/58/58 89/87/87
f 79/77/77 84/88/88 90/90/90
f 89/87/87 54/58/58 90/90/90
f 90/90/90 64/68/68 69/67/67
f 54/58/58 59/57/57 64/68/68
