# Blender v2.78 (sub 0) OBJ File: 'HumanBody-FullBody-insane.blend'
# www.blender.org
mtllib Connective.Ligaments.Interclaviculare.mtl
o Connective:Ligaments:Interclaviculare_Ligaments.014
v -0.044982 2.471995 0.160689
v -0.036028 2.513858 0.141369
v 0.005905 2.506319 0.148864
v 0.005905 2.458506 0.166549
v -0.077318 2.498959 0.146328
v -0.066878 2.533646 0.131194
v -0.082959 2.508915 0.140562
v -0.075160 2.533532 0.130197
v -0.045072 2.469214 0.155806
v 0.005905 2.456583 0.161282
v 0.005905 2.504455 0.143647
v -0.036182 2.510933 0.136551
v -0.077089 2.496034 0.141514
v -0.066898 2.530547 0.126445
v -0.082759 2.506787 0.136979
v -0.075095 2.531344 0.126634
v 0.047838 2.513858 0.141369
v 0.056792 2.471995 0.160689
v 0.078688 2.533646 0.131194
v 0.089128 2.498959 0.146328
v 0.086970 2.533532 0.130197
v 0.094769 2.508915 0.140562
v 0.056887 2.469214 0.155806
v 0.047992 2.510933 0.136551
v 0.088899 2.496034 0.141514
v 0.078708 2.530547 0.126445
v 0.094569 2.506787 0.136979
v 0.086905 2.531344 0.126634
v 0.005905 2.479863 0.159996
v -0.015682 2.507809 0.146716
v -0.040358 2.493747 0.151684
v -0.020959 2.461620 0.165388
v -0.018333 2.484592 0.157131
v -0.053832 2.524721 0.135425
v -0.071916 2.517705 0.139152
v -0.064063 2.486860 0.152970
v -0.058736 2.507231 0.144569
v -0.072698 2.537144 0.129525
v -0.079401 2.522310 0.135664
v -0.083258 2.503738 0.143652
v -0.077826 2.521736 0.137029
v -0.015791 2.505870 0.141474
v 0.005905 2.478154 0.152611
v -0.021004 2.459383 0.160255
v -0.040543 2.489785 0.145286
v -0.018462 2.481737 0.150244
v -0.053937 2.521447 0.130750
v -0.064023 2.483875 0.148176
v -0.071797 2.513594 0.132818
v -0.058806 2.502960 0.138305
v -0.072664 2.534179 0.124721
v -0.082939 2.500897 0.138808
v -0.079226 2.519375 0.130850
v -0.077612 2.517770 0.130631
v -0.034777 2.518303 0.136227
v 0.005905 2.511382 0.144344
v -0.014904 2.513520 0.141449
v 0.005905 2.451599 0.165896
v -0.046497 2.463957 0.161317
v -0.021711 2.454664 0.165084
v -0.065328 2.537159 0.126619
v -0.052372 2.528558 0.130541
v -0.079032 2.491240 0.146662
v -0.065827 2.478693 0.153663
v -0.074258 2.536631 0.126654
v -0.071084 2.540612 0.125045
v -0.084698 2.503583 0.140527
v -0.084937 2.496293 0.143791
v -0.079844 2.521208 0.133063
v 0.032769 2.461620 0.165388
v 0.052168 2.493747 0.151684
v 0.027492 2.507809 0.146716
v 0.030143 2.484592 0.157131
v 0.075873 2.486865 0.152970
v 0.083726 2.517705 0.139152
v 0.065642 2.524721 0.135425
v 0.070546 2.507231 0.144569
v 0.095068 2.503738 0.143652
v 0.091211 2.522310 0.135664
v 0.084508 2.537144 0.129525
v 0.089636 2.521736 0.137029
v 0.052353 2.489785 0.145286
v 0.032814 2.459383 0.160255
v 0.027601 2.505870 0.141474
v 0.030272 2.481737 0.150244
v 0.083607 2.513594 0.132818
v 0.075833 2.483875 0.148176
v 0.065747 2.521447 0.130750
v 0.070616 2.502960 0.138305
v 0.091036 2.519375 0.130850
v 0.094749 2.500897 0.138808
v 0.084474 2.534179 0.124721
v 0.089422 2.517770 0.130631
v 0.046587 2.518303 0.136227
v 0.026714 2.513520 0.141449
v 0.058307 2.463957 0.161317
v 0.033521 2.454664 0.165084
v 0.077138 2.537159 0.126619
v 0.064182 2.528558 0.130541
v 0.090842 2.491240 0.146662
v 0.077637 2.478693 0.153663
v 0.086068 2.536631 0.126654
v 0.082894 2.540612 0.125045
v 0.096508 2.503583 0.140527
v 0.096747 2.496293 0.143791
v 0.091654 2.521208 0.133063
vt 449460674740084222503944192.0000 0.0000
vt 449460674740084222503944192.0000 0.0000
vt 449460674740084222503944192.0000 0.0000
vt 449460674740084222503944192.0000 0.0000
vt 449460674740084222503944192.0000 0.0000
vt 449460674740084222503944192.0000 0.0000
vt 449460674740084222503944192.0000 0.0000
vt 449460674740084222503944192.0000 0.0000
vt 449460674740084222503944192.0000 0.0000
vt 449460674740084222503944192.0000 0.0000
vt 449460674740084222503944192.0000 0.0000
vt 449460674740084222503944192.0000 0.0000
vt 449460674740084222503944192.0000 0.0000
vt 449460674740084222503944192.0000 0.0000
vt 449460674740084222503944192.0000 0.0000
vt 449460674740084222503944192.0000 0.0000
vt 449460674740084222503944192.0000 0.0000
vt 449460674740084222503944192.0000 0.0000
vt 449460674740084222503944192.0000 0.0000
vt 449460674740084222503944192.0000 0.0000
vt 449460674740084222503944192.0000 0.0000
vt 449460674740084222503944192.0000 0.0000
vt 449460674740084222503944192.0000 0.0000
vt 449460674740084222503944192.0000 0.0000
vt 449460674740084222503944192.0000 0.0000
vt 449460674740084222503944192.0000 0.0000
vt 449460674740084222503944192.0000 0.0000
vt 449460674740084222503944192.0000 0.0000
vt 449460674740084222503944192.0000 0.0000
vt 449460674740084222503944192.0000 0.0000
vt 449460674740084222503944192.0000 0.0000
vt 449460674740084222503944192.0000 0.0000
vt 449460674740084222503944192.0000 0.0000
vt 449460674740084222503944192.0000 0.0000
vt 449460674740084222503944192.0000 0.0000
vt 449460674740084222503944192.0000 0.0000
vt 449460674740084222503944192.0000 0.0000
vt 449460674740084222503944192.0000 0.0000
vt 449460674740084222503944192.0000 0.0000
vt 449460674740084222503944192.0000 0.0000
vt 449460674740084222503944192.0000 0.0000
vt 449460674740084222503944192.0000 0.0000
vt 449460674740084222503944192.0000 0.0000
vt 449460674740084222503944192.0000 0.0000
vt 449460674740084222503944192.0000 0.0000
vt 449460674740084222503944192.0000 0.0000
vt 449460674740084222503944192.0000 0.0000
vt 449460674740084222503944192.0000 0.0000
vt 449460674740084222503944192.0000 0.0000
vt 449460674740084222503944192.0000 0.0000
vt 449460674740084222503944192.0000 0.0000
vt 449460674740084222503944192.0000 0.0000
vt 449460674740084222503944192.0000 0.0000
vt 449460674740084222503944192.0000 0.0000
vt 449460674740084222503944192.0000 0.0000
vt 449460674740084222503944192.0000 0.0000
vt 449460674740084222503944192.0000 0.0000
vt 449460674740084222503944192.0000 0.0000
vt 449460674740084222503944192.0000 0.0000
vt 449460674740084222503944192.0000 0.0000
vt 449460674740084222503944192.0000 0.0000
vt 449460674740084222503944192.0000 0.0000
vt 449460674740084222503944192.0000 0.0000
vt 449460674740084222503944192.0000 0.0000
vt 449460674740084222503944192.0000 0.0000
vt 449460674740084222503944192.0000 0.0000
vt 449460674740084222503944192.0000 0.0000
vt 449460674740084222503944192.0000 0.0000
vt 449460674740084222503944192.0000 0.0000
vt 449460674740084222503944192.0000 0.0000
vt 449460674740084222503944192.0000 0.0000
vt 449460674740084222503944192.0000 0.0000
vt 449460674740084222503944192.0000 0.0000
vt 449460674740084222503944192.0000 0.0000
vt 449460674740084222503944192.0000 0.0000
vt 449460674740084222503944192.0000 0.0000
vt 449460674740084222503944192.0000 0.0000
vt 449460674740084222503944192.0000 0.0000
vt 449460674740084222503944192.0000 0.0000
vt 449460674740084222503944192.0000 0.0000
vt 449460674740084222503944192.0000 0.0000
vt 449460674740084222503944192.0000 0.0000
vt 449460674740084222503944192.0000 0.0000
vt 449460674740084222503944192.0000 0.0000
vt 449460674740084222503944192.0000 0.0000
vt 449460674740084222503944192.0000 0.0000
vt 449460674740084222503944192.0000 0.0000
vt 449460674740084222503944192.0000 0.0000
vt 449460674740084222503944192.0000 0.0000
vt 449460674740084222503944192.0000 0.0000
vt 449460674740084222503944192.0000 0.0000
vt 449460674740084222503944192.0000 0.0000
vt 449460674740084222503944192.0000 0.0000
vt 449460674740084222503944192.0000 0.0000
vt 449460674740084222503944192.0000 0.0000
vt 449460674740084222503944192.0000 0.0000
vt 449460674740084222503944192.0000 0.0000
vt 449460674740084222503944192.0000 0.0000
vt 449460674740084222503944192.0000 0.0000
vt 449460674740084222503944192.0000 0.0000
vt 449460674740084222503944192.0000 0.0000
vt 449460674740084222503944192.0000 0.0000
vt 449460674740084222503944192.0000 0.0000
vt 449460674740084222503944192.0000 0.0000
vt 449460674740084222503944192.0000 0.0000
vt 449460674740084222503944192.0000 0.0000
vn 0.0000 0.3474 0.9377
vn -0.0741 0.1404 0.9873
vn 0.0000 0.0914 0.9958
vn 0.0000 0.5313 0.8471
vn -0.0476 0.3789 0.9242
vn -0.0431 0.5493 0.8345
vn -0.0566 0.4183 0.9065
vn -0.1503 0.2409 0.9588
vn -0.2044 0.2714 0.9405
vn 0.0195 0.5997 0.8000
vn -0.0422 0.4261 0.9037
vn 0.1234 0.6037 0.7875
vn -0.0418 0.4140 0.9093
vn -0.2236 0.2565 0.9403
vn -0.5685 0.3010 0.7656
vn 0.1427 0.5980 0.7887
vn -0.2713 0.4511 0.8502
vn -0.7855 0.4823 0.3878
vn -0.7860 0.4423 0.4320
vn -0.8291 0.3791 0.4110
vn 0.1318 -0.2009 -0.9707
vn 0.0486 -0.4237 -0.9044
vn 0.1625 -0.2570 -0.9526
vn 0.0000 -0.1317 -0.9913
vn 0.0427 -0.3852 -0.9218
vn 0.0000 -0.3608 -0.9326
vn -0.0550 -0.5771 -0.8148
vn -0.1068 -0.5834 -0.8051
vn 0.1615 -0.2420 -0.9567
vn 0.0444 -0.4106 -0.9107
vn 0.1662 -0.2035 -0.9648
vn 0.0393 -0.4256 -0.9040
vn -0.1235 -0.5748 -0.8089
vn -0.1061 -0.5686 -0.8157
vn -0.7239 0.0042 -0.6898
vn -0.1735 -0.3395 -0.9245
vn -0.7089 -0.0656 -0.7022
vn -0.2429 -0.0385 -0.9693
vn -0.4510 -0.4132 -0.7911
vn -0.7441 -0.1042 -0.6599
vn 0.2382 0.9113 -0.3359
vn 0.4682 0.7884 -0.3989
vn 0.0000 0.9646 -0.2636
vn 0.0000 -0.5484 -0.8362
vn -0.2388 -0.9027 0.3579
vn 0.0000 -0.9485 0.3168
vn -0.5128 -0.7732 0.3731
vn 0.5844 0.7210 -0.3722
vn 0.5699 0.7447 -0.3472
vn -0.6850 -0.6606 0.3071
vn -0.7157 -0.6468 0.2634
vn -0.8559 0.4453 -0.2628
vn -0.3011 0.7021 0.6452
vn -0.0580 0.9084 -0.4139
vn -0.8505 -0.4981 0.1686
vn -0.9924 0.0654 -0.1044
vn -0.9565 0.2326 -0.1758
vn 0.0741 0.1404 0.9873
vn 0.1503 0.2409 0.9588
vn 0.0476 0.3789 0.9242
vn 0.0566 0.4184 0.9065
vn 0.0431 0.5493 0.8345
vn 0.2044 0.2715 0.9405
vn 0.2236 0.2565 0.9403
vn 0.0422 0.4261 0.9037
vn 0.0418 0.4140 0.9093
vn -0.1234 0.6037 0.7876
vn -0.0195 0.5997 0.8000
vn 0.5685 0.3010 0.7656
vn 0.8291 0.3791 0.4110
vn 0.2713 0.4511 0.8502
vn 0.7855 0.4823 0.3878
vn 0.3011 0.7021 0.6452
vn -0.1427 0.5980 0.7886
vn -0.0486 -0.4237 -0.9044
vn -0.1318 -0.2009 -0.9707
vn -0.1625 -0.2570 -0.9526
vn 0.1068 -0.5835 -0.8050
vn -0.0427 -0.3852 -0.9218
vn 0.0550 -0.5771 -0.8148
vn -0.0444 -0.4106 -0.9107
vn -0.1615 -0.2420 -0.9567
vn -0.1662 -0.2035 -0.9648
vn 0.1061 -0.5686 -0.8157
vn -0.0393 -0.4256 -0.9040
vn 0.1235 -0.5748 -0.8089
vn 0.7239 0.0042 -0.6898
vn 0.1735 -0.3395 -0.9245
vn 0.2429 -0.0385 -0.9693
vn 0.7441 -0.1042 -0.6599
vn 0.7089 -0.0656 -0.7022
vn 0.4510 -0.4132 -0.7911
vn -0.2382 0.9113 -0.3358
vn -0.4682 0.7884 -0.3989
vn 0.2388 -0.9027 0.3579
vn 0.5128 -0.7732 0.3731
vn -0.5844 0.7210 -0.3722
vn -0.5699 0.7447 -0.3472
vn 0.6850 -0.6606 0.3071
vn 0.7157 -0.6468 0.2634
vn 0.8559 0.4453 -0.2628
vn 0.0580 0.9084 -0.4139
vn 0.8505 -0.4981 0.1686
vn 0.9924 0.0654 -0.1044
vn 0.9565 0.2326 -0.1758
vn 0.7860 0.4423 0.4320
g Connective:Ligaments:Interclaviculare_Ligaments.014_Ligaments
usemtl Ligaments
s 1
f 29/1/1 32/2/2 4/3/3
f 3/4/4 33/5/5 29/1/1
f 30/6/6 31/7/7 33/5/5
f 33/5/5 1/8/8 32/2/2
f 31/7/7 36/9/9 1/8/8
f 2/10/10 37/11/11 31/7/7
f 34/12/12 35/13/13 37/11/11
f 37/11/11 5/14/14 36/9/9
f 35/13/13 40/15/15 5/14/14
f 6/16/16 41/17/17 35/13/13
f 41/17/17 8/18/18 39/19/19
f 41/17/17 7/20/20 40/15/15
f 42/21/21 45/22/22 12/23/23
f 11/24/24 46/25/25 42/21/21
f 43/26/26 44/27/27 46/25/25
f 46/25/25 9/28/28 45/22/22
f 47/29/29 49/30/30 14/31/31
f 12/23/23 50/32/32 47/29/29
f 45/22/22 48/33/33 50/32/32
f 50/32/32 13/34/34 49/30/30
f 16/35/35 54/36/36 53/37/37
f 14/31/31 54/36/36 51/38/38
f 49/30/30 52/39/39 54/36/36
f 54/36/36 15/40/40 53/37/37
f 12/23/23 57/41/41 42/21/21
f 2/10/10 57/41/41 55/42/42
f 30/6/6 56/43/43 57/41/41
f 42/21/21 56/43/43 11/24/24
f 10/44/44 60/45/45 44/27/27
f 4/3/3 60/45/45 58/46/46
f 32/2/2 59/47/47 60/45/45
f 44/27/27 59/47/47 9/28/28
f 14/31/31 62/48/48 47/29/29
f 6/16/16 62/48/48 61/49/49
f 34/12/12 55/42/42 62/48/48
f 47/29/29 55/42/42 12/23/23
f 9/28/28 64/50/50 48/33/33
f 1/8/8 64/50/50 59/47/47
f 36/9/9 63/51/51 64/50/50
f 48/33/33 63/51/51 13/34/34
f 65/52/52 51/38/38 16/35/35
f 65/52/52 38/53/53 66/54/54
f 38/53/53 61/49/49 66/54/54
f 51/38/38 61/49/49 14/31/31
f 13/34/34 68/55/55 52/39/39
f 5/14/14 68/55/55 63/51/51
f 40/15/15 67/56/56 68/55/55
f 52/39/39 67/56/56 15/40/40
f 15/40/40 69/57/57 53/37/37
f 7/20/20 69/57/57 67/56/56
f 69/57/57 8/18/18 65/52/52
f 69/57/57 16/35/35 53/37/37
f 70/58/58 29/1/1 4/3/3
f 18/59/59 73/60/60 70/58/58
f 71/61/61 72/62/62 73/60/60
f 73/60/60 3/4/4 29/1/1
f 74/63/63 71/61/61 18/59/59
f 20/64/64 77/65/65 74/63/63
f 75/66/66 76/67/67 77/65/65
f 77/65/65 17/68/68 71/61/61
f 78/69/69 75/66/66 20/64/64
f 22/70/70 81/71/71 78/69/69
f 81/71/71 21/72/72 80/73/73
f 81/71/71 19/74/74 75/66/66
f 82/75/75 84/76/76 24/77/77
f 23/78/78 85/79/79 82/75/75
f 83/80/80 43/26/26 85/79/79
f 85/79/79 11/24/24 84/76/76
f 86/81/81 88/82/82 26/83/83
f 25/84/84 89/85/85 86/81/81
f 87/86/86 82/75/75 89/85/85
f 89/85/85 24/77/77 88/82/82
f 28/87/87 93/88/88 92/89/89
f 27/90/90 93/88/88 90/91/91
f 91/92/92 86/81/81 93/88/88
f 93/88/88 26/83/83 92/89/89
f 24/77/77 95/93/93 94/94/94
f 84/76/76 56/43/43 95/93/93
f 56/43/43 72/62/62 95/93/93
f 95/93/93 17/68/68 94/94/94
f 10/44/44 97/95/95 58/46/46
f 83/80/80 96/96/96 97/95/95
f 96/96/96 70/58/58 97/95/95
f 97/95/95 4/3/3 58/46/46
f 26/83/83 99/97/97 98/98/98
f 88/82/82 94/94/94 99/97/97
f 94/94/94 76/67/67 99/97/97
f 99/97/97 19/74/74 98/98/98
f 23/78/78 101/99/99 96/96/96
f 87/86/86 100/100/100 101/99/99
f 100/100/100 74/63/63 101/99/99
f 101/99/99 18/59/59 96/96/96
f 92/89/89 102/101/101 28/87/87
f 92/89/89 98/98/98 103/102/102
f 98/98/98 80/73/73 103/102/102
f 102/101/101 80/73/73 21/72/72
f 25/84/84 105/103/103 100/100/100
f 91/92/92 104/104/104 105/103/103
f 104/104/104 78/69/69 105/103/103
f 105/103/103 20/64/64 100/100/100
f 27/90/90 106/105/105 104/104/104
f 28/87/87 106/105/105 90/91/91
f 106/105/105 21/72/72 79/106/106
f 106/105/105 22/70/70 104/104/104
f 29/1/1 33/5/5 32/2/2
f 3/4/4 30/6/6 33/5/5
f 30/6/6 2/10/10 31/7/7
f 33/5/5 31/7/7 1/8/8
f 31/7/7 37/11/11 36/9/9
f 2/10/10 34/12/12 37/11/11
f 34/12/12 6/16/16 35/13/13
f 37/11/11 35/13/13 5/14/14
f 35/13/13 41/17/17 40/15/15
f 6/16/16 38/53/53 41/17/17
f 41/17/17 38/53/53 8/18/18
f 41/17/17 39/19/19 7/20/20
f 42/21/21 46/25/25 45/22/22
f 11/24/24 43/26/26 46/25/25
f 43/26/26 10/44/44 44/27/27
f 46/25/25 44/27/27 9/28/28
f 47/29/29 50/32/32 49/30/30
f 12/23/23 45/22/22 50/32/32
f 45/22/22 9/28/28 48/33/33
f 50/32/32 48/33/33 13/34/34
f 16/35/35 51/38/38 54/36/36
f 14/31/31 49/30/30 54/36/36
f 49/30/30 13/34/34 52/39/39
f 54/36/36 52/39/39 15/40/40
f 12/23/23 55/42/42 57/41/41
f 2/10/10 30/6/6 57/41/41
f 30/6/6 3/4/4 56/43/43
f 42/21/21 57/41/41 56/43/43
f 10/44/44 58/46/46 60/45/45
f 4/3/3 32/2/2 60/45/45
f 32/2/2 1/8/8 59/47/47
f 44/27/27 60/45/45 59/47/47
f 14/31/31 61/49/49 62/48/48
f 6/16/16 34/12/12 62/48/48
f 34/12/12 2/10/10 55/42/42
f 47/29/29 62/48/48 55/42/42
f 9/28/28 59/47/47 64/50/50
f 1/8/8 36/9/9 64/50/50
f 36/9/9 5/14/14 63/51/51
f 48/33/33 64/50/50 63/51/51
f 65/52/52 66/54/54 51/38/38
f 65/52/52 8/18/18 38/53/53
f 38/53/53 6/16/16 61/49/49
f 51/38/38 66/54/54 61/49/49
f 13/34/34 63/51/51 68/55/55
f 5/14/14 40/15/15 68/55/55
f 40/15/15 7/20/20 67/56/56
f 52/39/39 68/55/55 67/56/56
f 15/40/40 67/56/56 69/57/57
f 7/20/20 39/19/19 69/57/57
f 69/57/57 39/19/19 8/18/18
f 69/57/57 65/52/52 16/35/35
f 70/58/58 73/60/60 29/1/1
f 18/59/59 71/61/61 73/60/60
f 71/61/61 17/68/68 72/62/62
f 73/60/60 72/62/62 3/4/4
f 74/63/63 77/65/65 71/61/61
f 20/64/64 75/66/66 77/65/65
f 75/66/66 19/74/74 76/67/67
f 77/65/65 76/67/67 17/68/68
f 78/69/69 81/71/71 75/66/66
f 22/70/70 79/106/106 81/71/71
f 81/71/71 79/106/106 21/72/72
f 81/71/71 80/73/73 19/74/74
f 82/75/75 85/79/79 84/76/76
f 23/78/78 83/80/80 85/79/79
f 83/80/80 10/44/44 43/26/26
f 85/79/79 43/26/26 11/24/24
f 86/81/81 89/85/85 88/82/82
f 25/84/84 87/86/86 89/85/85
f 87/86/86 23/78/78 82/75/75
f 89/85/85 82/75/75 24/77/77
f 28/87/87 90/91/91 93/88/88
f 27/90/90 91/92/92 93/88/88
f 91/92/92 25/84/84 86/81/81
f 93/88/88 86/81/81 26/83/83
f 24/77/77 84/76/76 95/93/93
f 84/76/76 11/24/24 56/43/43
f 56/43/43 3/4/4 72/62/62
f 95/93/93 72/62/62 17/68/68
f 10/44/44 83/80/80 97/95/95
f 83/80/80 23/78/78 96/96/96
f 96/96/96 18/59/59 70/58/58
f 97/95/95 70/58/58 4/3/3
f 26/83/83 88/82/82 99/97/97
f 88/82/82 24/77/77 94/94/94
f 94/94/94 17/68/68 76/67/67
f 99/97/97 76/67/67 19/74/74
f 23/78/78 87/86/86 101/99/99
f 87/86/86 25/84/84 100/100/100
f 100/100/100 20/64/64 74/63/63
f 101/99/99 74/63/63 18/59/59
f 92/89/89 103/102/102 102/101/101
f 92/89/89 26/83/83 98/98/98
f 98/98/98 19/74/74 80/73/73
f 102/101/101 103/102/102 80/73/73
f 25/84/84 91/92/92 105/103/103
f 91/92/92 27/90/90 104/104/104
f 104/104/104 22/70/70 78/69/69
f 105/103/103 78/69/69 20/64/64
f 27/90/90 90/91/91 106/105/105
f 28/87/87 102/101/101 106/105/105
f 106/105/105 102/101/101 21/72/72
f 106/105/105 79/106/106 22/70/70
