# Blender v2.78 (sub 0) OBJ File: 'HumanBody-FullBody-insane.blend'
# www.blender.org
mtllib Connective.Ligaments.Capsula_articularis_membrana_fibrosa_R.001.mtl
o Connective:Ligaments:Capsula_articularis_membrana_fibrosa_R.001_Ligaments.000
v 0.005904 3.147485 -0.113252
v 0.005904 3.152074 -0.116342
v 0.058122 3.157820 -0.101317
v 0.058083 3.153101 -0.098168
v -0.046313 3.157820 -0.101387
v -0.046279 3.153111 -0.098193
v 0.005900 3.205084 -0.124922
v 0.047259 3.208597 -0.115883
v 0.052252 3.183233 -0.107292
v 0.005904 3.177578 -0.118728
v -0.040433 3.183239 -0.107462
v -0.035460 3.208597 -0.116018
v 0.078508 3.213546 -0.101821
v 0.080133 3.191281 -0.091909
v -0.068284 3.191261 -0.092004
v -0.066699 3.213531 -0.101906
v 0.084633 3.167337 -0.082740
v 0.082609 3.161597 -0.082068
v -0.070771 3.161617 -0.082063
v -0.072759 3.167362 -0.082765
v 0.005904 3.210322 -0.126980
v 0.046123 3.213645 -0.118036
v -0.034314 3.213650 -0.118076
v 0.074816 3.217363 -0.105498
v -0.063032 3.217353 -0.105528
v 0.005895 3.147714 -0.108244
v 0.055925 3.153325 -0.093469
v 0.054256 3.158697 -0.093424
v 0.005830 3.152518 -0.108513
v -0.042452 3.158926 -0.093290
v -0.044126 3.153414 -0.093449
v 0.005880 3.204043 -0.119147
v 0.005800 3.177792 -0.112898
v 0.049018 3.184130 -0.100465
v 0.045754 3.208672 -0.109799
v -0.037354 3.184011 -0.100371
v -0.034150 3.208677 -0.109873
v 0.078603 3.192054 -0.087594
v 0.077472 3.214378 -0.097296
v -0.066674 3.191924 -0.087609
v -0.065673 3.214323 -0.097306
v 0.080736 3.162130 -0.078849
v 0.082395 3.168314 -0.078311
v -0.068847 3.162190 -0.078859
v -0.070377 3.168409 -0.078400
v 0.045435 3.213630 -0.113411
v 0.005895 3.209604 -0.122461
v -0.033661 3.213630 -0.113407
v 0.074198 3.217841 -0.101945
v -0.062419 3.217816 -0.101945
vt 5147606139919091025898897408.0000 0.0000
vt 5147606139919091025898897408.0000 0.0000
vt 5147606139919091025898897408.0000 0.0000
vt 5147606139919091025898897408.0000 0.0000
vt 5147606139919091025898897408.0000 0.0000
vt 5147606139919091025898897408.0000 0.0000
vt 5147606139919091025898897408.0000 0.0000
vt 5147606139919091025898897408.0000 0.0000
vt 5147606139919091025898897408.0000 0.0000
vt 5147606139919091025898897408.0000 0.0000
vt 5147606139919091025898897408.0000 0.0000
vt 5147606139919091025898897408.0000 0.0000
vt 5147606139919091025898897408.0000 0.0000
vt 5147606139919091025898897408.0000 0.0000
vt 5147606139919091025898897408.0000 0.0000
vt 5147606139919091025898897408.0000 0.0000
vt 5147606139919091025898897408.0000 0.0000
vt 5147606139919091025898897408.0000 0.0000
vt 5147606139919091025898897408.0000 0.0000
vt 5147606139919091025898897408.0000 0.0000
vt 5147606139919091025898897408.0000 0.0000
vt 5147606139919091025898897408.0000 0.0000
vt 5147606139919091025898897408.0000 0.0000
vt 5147606139919091025898897408.0000 0.0000
vt 5147606139919091025898897408.0000 0.0000
vt 5147606139919091025898897408.0000 0.0000
vt 5147606139919091025898897408.0000 0.0000
vt 5147606139919091025898897408.0000 0.0000
vt 5147606139919091025898897408.0000 0.0000
vt 5147606139919091025898897408.0000 0.0000
vt 5147606139919091025898897408.0000 0.0000
vt 5147606139919091025898897408.0000 0.0000
vt 5147606139919091025898897408.0000 0.0000
vt 5147606139919091025898897408.0000 0.0000
vt 5147606139919091025898897408.0000 0.0000
vt 5147606139919091025898897408.0000 0.0000
vt 5147606139919091025898897408.0000 0.0000
vt 5147606139919091025898897408.0000 0.0000
vt 5147606139919091025898897408.0000 0.0000
vt 5147606139919091025898897408.0000 0.0000
vt 5147606139919091025898897408.0000 0.0000
vt 5147606139919091025898897408.0000 0.0000
vt 5147606139919091025898897408.0000 0.0000
vt 5147606139919091025898897408.0000 0.0000
vt 5147606139919091025898897408.0000 0.0000
vt 5147606139919091025898897408.0000 0.0000
vt 5147606139919091025898897408.0000 0.0000
vt 5147606139919091025898897408.0000 0.0000
vt 5147606139919091025898897408.0000 0.0000
vt 5147606139919091025898897408.0000 0.0000
vn 0.0003 -0.8661 -0.4997
vn 0.4453 -0.3269 -0.8335
vn 0.3643 -0.8485 -0.3837
vn -0.4458 -0.3309 -0.8317
vn -0.3627 -0.8527 -0.3758
vn 0.0016 -0.1629 -0.9866
vn 0.3341 -0.2715 -0.9026
vn 0.3809 -0.1858 -0.9057
vn -0.3328 -0.2638 -0.9053
vn 0.0009 -0.2916 -0.9565
vn 0.8927 0.1831 -0.4118
vn 0.9443 -0.0007 -0.3291
vn -0.3807 -0.1870 -0.9055
vn -0.8926 0.1832 -0.4118
vn 0.7500 -0.6597 -0.0475
vn -0.7514 -0.6588 -0.0368
vn 0.0009 -0.3472 -0.9378
vn 0.9830 -0.1190 -0.1394
vn -0.9470 -0.0007 -0.3212
vn 0.1832 0.5628 -0.8060
vn -0.1802 0.5698 -0.8018
vn 0.0004 0.5458 -0.8379
vn 0.5138 0.5508 -0.6577
vn -0.5130 0.5560 -0.6540
vn -0.0007 -0.7668 0.6418
vn -0.3862 0.0360 0.9217
vn 0.0031 0.1160 0.9932
vn 0.3866 0.0308 0.9217
vn -0.3328 0.4185 0.8450
vn 0.0006 0.2156 0.9765
vn -0.3657 0.2368 0.9001
vn 0.3338 0.4120 0.8478
vn -0.0008 0.3775 0.9260
vn 0.4143 0.5963 0.6876
vn 0.3224 0.3817 0.8662
vn -0.4157 0.5932 0.6894
vn 0.3680 0.2407 0.8981
vn 0.1683 -0.4896 0.8555
vn 0.3318 0.1308 0.9342
vn -0.1677 -0.4820 0.8600
vn -0.3170 0.1423 0.9377
vn -0.3142 0.3826 0.8688
vn -0.2340 0.8787 0.4161
vn -0.0001 0.8520 0.5236
vn 0.2346 0.8744 0.4248
vn 0.1156 0.9358 0.3329
vn -0.1160 0.9340 0.3378
vn -0.1149 -0.7598 0.6399
vn 0.1140 -0.7593 0.6406
vn -0.9855 -0.1138 -0.1260
g Connective:Ligaments:Capsula_articularis_membrana_fibrosa_R.001_Ligaments.000_Ligaments
usemtl Ligaments
s 1
f 1/1/1 3/2/2 4/3/3
f 5/4/4 1/1/1 6/5/5
f 10/6/6 8/7/7 9/8/8
f 10/6/6 12/9/9 7/10/10
f 9/8/8 13/11/11 14/12/12
f 11/13/13 16/14/14 12/9/9
f 3/2/2 18/15/15 4/3/3
f 19/16/16 5/4/4 6/5/5
f 2/17/17 9/8/8 3/2/2
f 2/17/17 11/13/13 10/6/6
f 3/2/2 14/12/12 17/18/18
f 5/4/4 15/19/19 11/13/13
f 7/10/10 22/20/20 8/7/7
f 7/10/10 23/21/21 21/22/22
f 8/7/7 24/23/23 13/11/11
f 12/9/9 25/24/24 23/21/21
f 26/25/25 28/26/26 29/27/27
f 30/28/28 26/25/25 29/27/27
f 35/29/29 33/30/30 34/31/31
f 37/32/32 33/30/30 32/33/33
f 39/34/34 34/31/31 38/35/35
f 41/36/36 36/37/37 37/32/32
f 28/26/26 42/38/38 43/39/39
f 44/40/40 30/28/28 45/41/41
f 29/27/27 34/31/31 33/30/30
f 36/37/37 29/27/27 33/30/30
f 28/26/26 38/35/35 34/31/31
f 40/42/42 30/28/28 36/37/37
f 32/33/33 46/43/43 47/44/44
f 48/45/45 32/33/33 47/44/44
f 35/29/29 49/46/46 46/43/43
f 50/47/47 37/32/32 48/45/45
f 26/25/25 4/3/3 27/48/48
f 6/5/5 26/25/25 31/49/49
f 14/12/12 39/34/34 38/35/35
f 41/36/36 15/19/19 40/42/42
f 27/48/48 18/15/15 42/38/38
f 42/38/38 17/18/18 43/39/39
f 20/50/50 44/40/40 45/41/41
f 19/16/16 31/49/49 44/40/40
f 17/18/18 38/35/35 43/39/39
f 40/42/42 20/50/50 45/41/41
f 22/20/20 47/44/44 46/43/43
f 47/44/44 23/21/21 48/45/45
f 13/11/11 49/46/46 39/34/34
f 24/23/23 46/43/43 49/46/46
f 50/47/47 16/14/14 41/36/36
f 48/45/45 25/24/24 50/47/47
f 1/1/1 2/17/17 3/2/2
f 5/4/4 2/17/17 1/1/1
f 10/6/6 7/10/10 8/7/7
f 10/6/6 11/13/13 12/9/9
f 9/8/8 8/7/7 13/11/11
f 11/13/13 15/19/19 16/14/14
f 3/2/2 17/18/18 18/15/15
f 19/16/16 20/50/50 5/4/4
f 2/17/17 10/6/6 9/8/8
f 2/17/17 5/4/4 11/13/13
f 3/2/2 9/8/8 14/12/12
f 5/4/4 20/50/50 15/19/19
f 7/10/10 21/22/22 22/20/20
f 7/10/10 12/9/9 23/21/21
f 8/7/7 22/20/20 24/23/23
f 12/9/9 16/14/14 25/24/24
f 26/25/25 27/48/48 28/26/26
f 30/28/28 31/49/49 26/25/25
f 35/29/29 32/33/33 33/30/30
f 37/32/32 36/37/37 33/30/30
f 39/34/34 35/29/29 34/31/31
f 41/36/36 40/42/42 36/37/37
f 28/26/26 27/48/48 42/38/38
f 44/40/40 31/49/49 30/28/28
f 29/27/27 28/26/26 34/31/31
f 36/37/37 30/28/28 29/27/27
f 28/26/26 43/39/39 38/35/35
f 40/42/42 45/41/41 30/28/28
f 32/33/33 35/29/29 46/43/43
f 48/45/45 37/32/32 32/33/33
f 35/29/29 39/34/34 49/46/46
f 50/47/47 41/36/36 37/32/32
f 26/25/25 1/1/1 4/3/3
f 6/5/5 1/1/1 26/25/25
f 14/12/12 13/11/11 39/34/34
f 41/36/36 16/14/14 15/19/19
f 27/48/48 4/3/3 18/15/15
f 42/38/38 18/15/15 17/18/18
f 20/50/50 19/16/16 44/40/40
f 19/16/16 6/5/5 31/49/49
f 17/18/18 14/12/12 38/35/35
f 40/42/42 15/19/19 20/50/50
f 22/20/20 21/22/22 47/44/44
f 47/44/44 21/22/22 23/21/21
f 13/11/11 24/23/23 49/46/46
f 24/23/23 22/20/20 46/43/43
f 50/47/47 25/24/24 16/14/14
f 48/45/45 23/21/21 25/24/24
